<svg width="149" height="77" viewBox="0 0 149 77" fill="none" xmlns="http://www.w3.org/2000/svg">
<path d="M7.18264 34H6.73264C5.95264 34 5.20264 33.925 4.48264 33.775C3.76264 33.625 3.11764 33.355 2.54764 32.965C2.00764 32.575 1.55764 32.035 1.19764 31.345C0.867637 30.655 0.702637 29.755 0.702637 28.645V6.73C0.702637 5.65 0.867637 4.765 1.19764 4.075C1.52764 3.385 1.96264 2.845 2.50264 2.455C3.04264 2.035 3.65764 1.75 4.34764 1.6C5.03764 1.42 5.74264 1.33 6.46264 1.33H7.18264V34ZM17.0376 29.68C17.0376 30.19 16.9476 30.7 16.7676 31.21C16.5876 31.72 16.3026 32.185 15.9126 32.605C15.5226 32.995 15.0426 33.325 14.4726 33.595C13.9026 33.865 13.2276 34 12.4476 34C11.1876 34 10.1226 33.655 9.25264 32.965C8.41264 32.245 7.99264 31.255 7.99264 29.995C7.99264 29.755 7.99264 29.545 7.99264 29.365C8.02264 29.155 8.08264 28.93 8.17264 28.69C8.56264 29.05 9.04264 29.23 9.61264 29.23C10.0626 29.23 10.4376 29.095 10.7376 28.825C11.0376 28.525 11.1876 28.09 11.1876 27.52V25.315C11.4276 25.255 11.7276 25.225 12.0876 25.225C12.5076 25.225 13.0026 25.285 13.5726 25.405C14.1426 25.495 14.6826 25.705 15.1926 26.035C15.7026 26.365 16.1376 26.83 16.4976 27.43C16.8576 28 17.0376 28.75 17.0376 29.68ZM17.0376 5.605C17.0376 6.565 16.8576 7.33 16.4976 7.9C16.1376 8.47 15.7026 8.92 15.1926 9.25C14.6826 9.58 14.1426 9.805 13.5726 9.925C13.0026 10.015 12.5076 10.06 12.0876 10.06C11.7276 10.06 11.4276 10.03 11.1876 9.97V7.9C11.1876 7.36 11.0526 6.925 10.7826 6.595C10.5126 6.235 10.1226 6.055 9.61264 6.055C9.04264 6.055 8.56264 6.235 8.17264 6.595C8.08264 6.355 8.02264 6.145 7.99264 5.965C7.99264 5.755 7.99264 5.53 7.99264 5.29C7.99264 4.93 8.05264 4.525 8.17264 4.075C8.32264 3.595 8.56264 3.16 8.89264 2.77C9.22264 2.35 9.65764 2.005 10.1976 1.735C10.7676 1.435 11.4876 1.285 12.3576 1.285C12.9876 1.285 13.5876 1.39 14.1576 1.6C14.7276 1.81 15.2226 2.11 15.6426 2.5C16.0626 2.89 16.3926 3.355 16.6326 3.895C16.9026 4.405 17.0376 4.975 17.0376 5.605ZM26.2391 26.89C26.2391 27.25 26.2541 27.595 26.2841 27.925C26.3441 28.255 26.4341 28.555 26.5541 28.825C26.7041 29.065 26.8991 29.275 27.1391 29.455C27.4091 29.605 27.7691 29.68 28.2191 29.68C28.4591 29.68 28.6991 29.65 28.9391 29.59C29.2091 29.5 29.4491 29.365 29.6591 29.185C29.7791 29.425 29.8541 29.665 29.8841 29.905C29.9141 30.115 29.9291 30.34 29.9291 30.58C29.9291 31.54 29.5391 32.35 28.7591 33.01C27.9791 33.67 26.9141 34 25.5641 34C23.9441 34 22.6391 33.52 21.6491 32.56C20.6891 31.6 20.2091 30.13 20.2091 28.15V11.185H20.4791C22.2791 11.185 23.6891 11.62 24.7091 12.49C25.7291 13.33 26.2391 14.695 26.2391 16.585V26.89ZM36.4991 33.91H36.0041C34.4441 33.91 33.1241 33.505 32.0441 32.695C30.9941 31.855 30.4691 30.505 30.4691 28.645V11.185H30.7391C31.3991 11.185 32.0741 11.275 32.7641 11.455C33.4541 11.635 34.0691 11.935 34.6091 12.355C35.1791 12.745 35.6291 13.27 35.9591 13.93C36.3191 14.59 36.4991 15.385 36.4991 16.315V33.91ZM40.5558 11.14H41.0508C42.6108 11.14 43.9158 11.56 44.9658 12.4C46.0458 13.24 46.5858 14.575 46.5858 16.405V34H46.3158C45.6258 34 44.9358 33.91 44.2458 33.73C43.5858 33.55 42.9708 33.265 42.4008 32.875C41.8608 32.455 41.4108 31.93 41.0508 31.3C40.7208 30.64 40.5558 29.83 40.5558 28.87V11.14ZM55.4508 15.1C55.4508 15.94 55.2858 16.615 54.9558 17.125C54.6258 17.635 54.2208 18.04 53.7408 18.34C53.2908 18.61 52.7958 18.79 52.2558 18.88C51.7158 18.97 51.2508 19.015 50.8608 19.015C50.4408 19.015 50.0808 18.985 49.7808 18.925V17.305C49.7808 16.615 49.6608 16.18 49.4208 16C49.2108 15.82 48.9408 15.73 48.6108 15.73C48.3108 15.73 48.0708 15.79 47.8908 15.91C47.7408 16.03 47.5608 16.21 47.3508 16.45C47.2608 16.21 47.2008 15.97 47.1708 15.73C47.1708 15.46 47.1708 15.205 47.1708 14.965C47.1708 14.575 47.2308 14.155 47.3508 13.705C47.5008 13.255 47.7258 12.85 48.0258 12.49C48.3558 12.1 48.7758 11.785 49.2858 11.545C49.7958 11.275 50.4408 11.14 51.2208 11.14C52.6608 11.14 53.7258 11.53 54.4158 12.31C55.1058 13.06 55.4508 13.99 55.4508 15.1ZM57.5134 4.21C57.5134 3.19 57.8734 2.335 58.5934 1.645C59.3134 0.924998 60.1684 0.564999 61.1584 0.564999C62.1484 0.564999 62.9884 0.924998 63.6784 1.645C64.3984 2.335 64.7584 3.19 64.7584 4.21C64.7584 5.23 64.3984 6.085 63.6784 6.775C62.9884 7.465 62.1484 7.81 61.1584 7.81C60.1684 7.81 59.3134 7.465 58.5934 6.775C57.8734 6.085 57.5134 5.23 57.5134 4.21ZM58.1884 11.14H58.6834C60.2434 11.14 61.5484 11.56 62.5984 12.4C63.6784 13.24 64.2184 14.575 64.2184 16.405V34H63.9484C63.2584 34 62.5684 33.91 61.8784 33.73C61.2184 33.55 60.6034 33.265 60.0334 32.875C59.4934 32.455 59.0434 31.93 58.6834 31.3C58.3534 30.64 58.1884 29.83 58.1884 28.87V11.14ZM74.8426 26.98C74.8426 27.34 74.8576 27.685 74.8876 28.015C74.9476 28.345 75.0376 28.645 75.1576 28.915C75.3076 29.155 75.5026 29.365 75.7426 29.545C76.0126 29.695 76.3726 29.77 76.8226 29.77C77.0626 29.77 77.3026 29.74 77.5426 29.68C77.8126 29.59 78.0526 29.455 78.2626 29.275C78.3826 29.515 78.4576 29.755 78.4876 29.995C78.5176 30.205 78.5326 30.43 78.5326 30.67C78.5326 31.63 78.1276 32.425 77.3176 33.055C76.5076 33.685 75.5326 34 74.3926 34C72.5926 34 71.2126 33.52 70.2526 32.56C69.2926 31.6 68.8126 30.4 68.8126 28.96V16.45C68.8126 15.46 68.9926 14.635 69.3526 13.975C69.7426 13.285 70.2226 12.73 70.7926 12.31C71.3926 11.89 72.0376 11.59 72.7276 11.41C73.4476 11.23 74.1526 11.14 74.8426 11.14V26.98ZM85.1026 28.69C85.1026 29.74 84.9076 30.61 84.5176 31.3C84.1576 31.96 83.6776 32.5 83.0776 32.92C82.5076 33.31 81.8626 33.595 81.1426 33.775C80.4226 33.925 79.7326 34 79.0726 34V18.16C79.0726 17.8 79.0426 17.455 78.9826 17.125C78.9526 16.795 78.8626 16.51 78.7126 16.27C78.5926 16 78.3976 15.79 78.1276 15.64C77.8876 15.46 77.5426 15.37 77.0926 15.37C76.8526 15.37 76.5976 15.415 76.3276 15.505C76.0876 15.565 75.8626 15.685 75.6526 15.865C75.5326 15.625 75.4576 15.4 75.4276 15.19C75.3976 14.95 75.3826 14.71 75.3826 14.47C75.3826 13.51 75.7876 12.715 76.5976 12.085C77.4076 11.455 78.3826 11.14 79.5226 11.14C81.3226 11.14 82.7026 11.605 83.6626 12.535C84.6226 13.435 85.1026 14.74 85.1026 16.45V28.69ZM94.7393 22.75H94.3343C93.6443 22.75 92.9543 22.675 92.2643 22.525C91.6043 22.345 91.0043 22.06 90.4643 21.67C89.9543 21.25 89.5343 20.71 89.2043 20.05C88.8743 19.39 88.7093 18.58 88.7093 17.62V16.45C88.7093 15.37 88.8893 14.485 89.2493 13.795C89.6093 13.105 90.0743 12.565 90.6443 12.175C91.2143 11.785 91.8593 11.515 92.5793 11.365C93.2993 11.215 94.0193 11.14 94.7393 11.14V22.75ZM98.5643 22.39H98.9693C99.6593 22.39 100.334 22.48 100.994 22.66C101.684 22.81 102.284 23.095 102.794 23.515C103.334 23.905 103.769 24.43 104.099 25.09C104.429 25.75 104.594 26.56 104.594 27.52V28.69C104.594 29.77 104.414 30.655 104.054 31.345C103.694 32.035 103.229 32.575 102.659 32.965C102.089 33.355 101.444 33.625 100.724 33.775C100.004 33.925 99.2843 34 98.5643 34V22.39ZM104.414 15.1C104.414 16.06 104.234 16.825 103.874 17.395C103.514 17.965 103.079 18.415 102.569 18.745C102.059 19.075 101.519 19.3 100.949 19.42C100.379 19.51 99.8843 19.555 99.4643 19.555C99.1043 19.555 98.8043 19.525 98.5643 19.465V17.395C98.5643 16.765 98.4143 16.3 98.1143 16C97.8143 15.7 97.4393 15.55 96.9893 15.55C96.4193 15.55 95.9393 15.73 95.5493 16.09C95.4593 15.85 95.3993 15.64 95.3693 15.46C95.3693 15.25 95.3693 15.025 95.3693 14.785C95.3693 14.425 95.4293 14.02 95.5493 13.57C95.6693 13.09 95.8943 12.655 96.2243 12.265C96.5543 11.845 97.0043 11.5 97.5743 11.23C98.1443 10.93 98.8643 10.78 99.7343 10.78C100.544 10.78 101.234 10.915 101.804 11.185C102.404 11.425 102.884 11.755 103.244 12.175C103.634 12.595 103.919 13.06 104.099 13.57C104.309 14.08 104.414 14.59 104.414 15.1ZM88.9343 29.68C88.9343 28.75 89.1143 28 89.4743 27.43C89.8343 26.83 90.2693 26.365 90.7793 26.035C91.2893 25.705 91.8293 25.495 92.3993 25.405C92.9693 25.285 93.4643 25.225 93.8843 25.225C94.2443 25.225 94.5443 25.255 94.7843 25.315V27.385C94.7843 28.015 94.9343 28.48 95.2343 28.78C95.5343 29.08 95.9093 29.23 96.3593 29.23C96.8993 29.23 97.3793 29.05 97.7993 28.69C97.8893 28.93 97.9343 29.155 97.9343 29.365C97.9643 29.545 97.9793 29.755 97.9793 29.995C97.9793 30.355 97.9043 30.775 97.7543 31.255C97.6343 31.705 97.3943 32.14 97.0343 32.56C96.7043 32.95 96.2543 33.295 95.6843 33.595C95.1443 33.865 94.4543 34 93.6143 34C92.8043 34 92.0993 33.88 91.4993 33.64C90.9293 33.37 90.4493 33.025 90.0593 32.605C89.6993 32.185 89.4143 31.72 89.2043 31.21C89.0243 30.7 88.9343 30.19 88.9343 29.68ZM107.963 4.21C107.963 3.19 108.323 2.335 109.043 1.645C109.763 0.924998 110.618 0.564999 111.608 0.564999C112.598 0.564999 113.438 0.924998 114.128 1.645C114.848 2.335 115.208 3.19 115.208 4.21C115.208 5.23 114.848 6.085 114.128 6.775C113.438 7.465 112.598 7.81 111.608 7.81C110.618 7.81 109.763 7.465 109.043 6.775C108.323 6.085 107.963 5.23 107.963 4.21ZM108.638 11.14H109.133C110.693 11.14 111.998 11.56 113.048 12.4C114.128 13.24 114.668 14.575 114.668 16.405V34H114.398C113.708 34 113.018 33.91 112.328 33.73C111.668 33.55 111.053 33.265 110.483 32.875C109.943 32.455 109.493 31.93 109.133 31.3C108.803 30.64 108.638 29.83 108.638 28.87V11.14ZM125.292 27.115C125.292 27.415 125.292 27.73 125.292 28.06C125.322 28.39 125.382 28.69 125.472 28.96C125.592 29.23 125.757 29.455 125.967 29.635C126.177 29.815 126.477 29.905 126.867 29.905C127.347 29.905 127.707 29.785 127.947 29.545C128.217 29.275 128.412 29.05 128.532 28.87C128.592 29.05 128.637 29.32 128.667 29.68C128.727 30.04 128.757 30.34 128.757 30.58C128.757 31.72 128.367 32.575 127.587 33.145C126.837 33.715 125.832 34 124.572 34C122.922 34 121.617 33.49 120.657 32.47C119.727 31.45 119.262 29.77 119.262 27.43V6.775C119.262 6.025 119.352 5.32 119.532 4.66C119.742 4 120.057 3.43 120.477 2.95C120.897 2.44 121.437 2.05 122.097 1.78C122.787 1.48 123.612 1.33 124.572 1.33C124.692 1.33 124.812 1.345 124.932 1.375C125.052 1.375 125.172 1.375 125.292 1.375V27.115ZM126.057 11.365H126.147C126.207 11.365 126.342 11.365 126.552 11.365C126.762 11.335 127.092 11.32 127.542 11.32H129.567C129.597 11.41 129.612 11.635 129.612 11.995C129.612 13.135 129.342 14.035 128.802 14.695C128.262 15.325 127.347 15.64 126.057 15.64V11.365ZM138.256 26.89C138.256 27.25 138.271 27.595 138.301 27.925C138.361 28.255 138.451 28.555 138.571 28.825C138.721 29.065 138.916 29.275 139.156 29.455C139.426 29.605 139.786 29.68 140.236 29.68C140.476 29.68 140.716 29.65 140.956 29.59C141.226 29.5 141.466 29.365 141.676 29.185C141.796 29.425 141.871 29.665 141.901 29.905C141.931 30.115 141.946 30.34 141.946 30.58C141.946 31.54 141.556 32.35 140.776 33.01C139.996 33.67 138.931 34 137.581 34C135.961 34 134.656 33.505 133.666 32.515C132.706 31.495 132.226 30.04 132.226 28.15V11.185H132.496C134.296 11.185 135.706 11.62 136.726 12.49C137.746 13.33 138.256 14.695 138.256 16.585V26.89ZM148.516 34.765C148.516 36.625 147.976 37.96 146.896 38.77C145.846 39.61 144.541 40.03 142.981 40.03H142.486V11.185H142.756C143.416 11.185 144.091 11.275 144.781 11.455C145.471 11.635 146.086 11.935 146.626 12.355C147.196 12.745 147.646 13.27 147.976 13.93C148.336 14.59 148.516 15.385 148.516 16.315V34.765ZM134.926 41.965C134.926 41.035 135.106 40.27 135.466 39.67C135.826 39.1 136.261 38.65 136.771 38.32C137.281 37.99 137.821 37.765 138.391 37.645C138.961 37.555 139.456 37.51 139.876 37.51C140.236 37.51 140.536 37.54 140.776 37.6V39.67C140.776 40.3 140.926 40.765 141.226 41.065C141.526 41.365 141.901 41.515 142.351 41.515C142.891 41.515 143.371 41.335 143.791 40.975C143.881 41.215 143.926 41.425 143.926 41.605C143.956 41.815 143.971 42.04 143.971 42.28C143.971 42.64 143.881 43.045 143.701 43.495C143.551 43.975 143.296 44.41 142.936 44.8C142.606 45.22 142.156 45.565 141.586 45.835C141.046 46.135 140.386 46.285 139.606 46.285C138.796 46.285 138.091 46.15 137.491 45.88C136.921 45.61 136.441 45.265 136.051 44.845C135.691 44.455 135.406 44.005 135.196 43.495C135.016 42.985 134.926 42.475 134.926 41.965ZM34.0571 44.33H34.7771C35.4971 44.33 36.2021 44.42 36.8921 44.6C37.5821 44.75 38.1971 45.035 38.7371 45.455C39.2771 45.845 39.7121 46.385 40.0421 47.075C40.3721 47.765 40.5371 48.65 40.5371 49.73V71.645C40.5371 72.755 40.3571 73.655 39.9971 74.345C39.6671 75.035 39.2171 75.575 38.6471 75.965C38.1071 76.355 37.4621 76.625 36.7121 76.775C35.9921 76.925 35.2571 77 34.5071 77H34.0571V44.33ZM45.1721 44.33H45.8921C46.6121 44.33 47.3171 44.42 48.0071 44.6C48.6971 44.75 49.3121 45.035 49.8521 45.455C50.3921 45.845 50.8271 46.385 51.1571 47.075C51.4871 47.765 51.6521 48.65 51.6521 49.73V71.645C51.6521 72.755 51.4721 73.655 51.1121 74.345C50.7821 75.035 50.3321 75.575 49.7621 75.965C49.2221 76.355 48.5771 76.625 47.8271 76.775C47.1071 76.925 46.3721 77 45.6221 77H45.1721V44.33ZM41.0771 58.28H45.1721C45.0521 58.91 44.9171 59.495 44.7671 60.035C44.6171 60.545 44.3921 60.995 44.0921 61.385C43.8221 61.745 43.4621 62.045 43.0121 62.285C42.5621 62.495 41.9921 62.6 41.3021 62.6H41.0771V58.28ZM61.9666 69.98C61.9666 70.34 61.9816 70.685 62.0116 71.015C62.0716 71.345 62.1616 71.645 62.2816 71.915C62.4316 72.155 62.6266 72.365 62.8666 72.545C63.1366 72.695 63.4966 72.77 63.9466 72.77C64.1866 72.77 64.4266 72.74 64.6666 72.68C64.9366 72.59 65.1766 72.455 65.3866 72.275C65.5066 72.515 65.5816 72.755 65.6116 72.995C65.6416 73.205 65.6566 73.43 65.6566 73.67C65.6566 74.63 65.2516 75.425 64.4416 76.055C63.6316 76.685 62.6566 77 61.5166 77C59.7166 77 58.3366 76.52 57.3766 75.56C56.4166 74.6 55.9366 73.4 55.9366 71.96V59.45C55.9366 58.46 56.1166 57.635 56.4766 56.975C56.8666 56.285 57.3466 55.73 57.9166 55.31C58.5166 54.89 59.1616 54.59 59.8516 54.41C60.5716 54.23 61.2766 54.14 61.9666 54.14V69.98ZM72.2266 71.69C72.2266 72.74 72.0316 73.61 71.6416 74.3C71.2816 74.96 70.8016 75.5 70.2016 75.92C69.6316 76.31 68.9866 76.595 68.2666 76.775C67.5466 76.925 66.8566 77 66.1966 77V61.16C66.1966 60.8 66.1666 60.455 66.1066 60.125C66.0766 59.795 65.9866 59.51 65.8366 59.27C65.7166 59 65.5216 58.79 65.2516 58.64C65.0116 58.46 64.6666 58.37 64.2166 58.37C63.9766 58.37 63.7216 58.415 63.4516 58.505C63.2116 58.565 62.9866 58.685 62.7766 58.865C62.6566 58.625 62.5816 58.4 62.5516 58.19C62.5216 57.95 62.5066 57.71 62.5066 57.47C62.5066 56.51 62.9116 55.715 63.7216 55.085C64.5316 54.455 65.5066 54.14 66.6466 54.14C68.4466 54.14 69.8266 54.605 70.7866 55.535C71.7466 56.435 72.2266 57.74 72.2266 59.45V71.69ZM82.3133 70.115C82.3133 70.415 82.3133 70.73 82.3133 71.06C82.3433 71.39 82.4033 71.69 82.4933 71.96C82.6133 72.23 82.7783 72.455 82.9883 72.635C83.1983 72.815 83.4983 72.905 83.8883 72.905C84.3683 72.905 84.7283 72.785 84.9683 72.545C85.2383 72.275 85.4333 72.05 85.5533 71.87C85.6133 72.05 85.6583 72.32 85.6883 72.68C85.7483 73.04 85.7783 73.34 85.7783 73.58C85.7783 74.72 85.3883 75.575 84.6083 76.145C83.8583 76.715 82.8533 77 81.5933 77C79.9433 77 78.6383 76.49 77.6783 75.47C76.7483 74.45 76.2833 72.77 76.2833 70.43V49.775C76.2833 49.025 76.3733 48.32 76.5533 47.66C76.7633 47 77.0783 46.43 77.4983 45.95C77.9183 45.44 78.4583 45.05 79.1183 44.78C79.8083 44.48 80.6333 44.33 81.5933 44.33C81.7133 44.33 81.8333 44.345 81.9533 44.375C82.0733 44.375 82.1933 44.375 82.3133 44.375V70.115ZM83.0783 54.365H83.1683C83.2283 54.365 83.3633 54.365 83.5733 54.365C83.7833 54.335 84.1133 54.32 84.5633 54.32H86.5883C86.6183 54.41 86.6333 54.635 86.6333 54.995C86.6333 56.135 86.3633 57.035 85.8233 57.695C85.2833 58.325 84.3683 58.64 83.0783 58.64V54.365ZM95.2772 77H94.8272C94.1372 77 93.4622 76.925 92.8022 76.775C92.1422 76.595 91.5422 76.31 91.0022 75.92C90.4922 75.5 90.0722 74.96 89.7422 74.3C89.4122 73.64 89.2472 72.83 89.2472 71.87V59.765C89.2472 58.115 89.6372 56.765 90.4172 55.715C91.2272 54.665 92.5322 54.14 94.3322 54.14C95.5322 54.14 96.5222 54.455 97.3022 55.085C98.0822 55.685 98.4722 56.66 98.4722 58.01C98.4722 58.46 98.4122 58.79 98.2922 59C97.8722 58.64 97.4222 58.46 96.9422 58.46C96.2822 58.46 95.8322 58.685 95.5922 59.135C95.3822 59.585 95.2772 60.065 95.2772 60.575V77ZM99.2822 54.185C99.4322 54.155 99.5822 54.14 99.7322 54.14H100.182C101.802 54.14 103.062 54.56 103.962 55.4C104.862 56.21 105.312 57.38 105.312 58.91V61.385C105.312 63.425 104.802 64.94 103.782 65.93C102.762 66.92 101.517 67.415 100.047 67.415H99.7322C98.5922 67.355 97.6622 66.98 96.9422 66.29C96.2522 65.57 95.9072 64.715 95.9072 63.725C95.9072 63.575 95.9072 63.44 95.9072 63.32C95.9372 63.2 95.9972 63.02 96.0872 62.78C96.3272 63.02 96.5372 63.2 96.7172 63.32C96.8972 63.44 97.1972 63.5 97.6172 63.5C98.3072 63.5 98.7572 63.26 98.9672 62.78C99.1772 62.27 99.2822 61.685 99.2822 61.025V54.185ZM105.132 72.635C105.132 73.475 104.982 74.18 104.682 74.75C104.412 75.29 104.052 75.74 103.602 76.1C103.152 76.43 102.657 76.67 102.117 76.82C101.577 76.94 101.052 77 100.542 77C99.0122 77 97.9322 76.625 97.3022 75.875C96.6722 75.125 96.3572 74.285 96.3572 73.355C96.3572 73.205 96.3572 73.025 96.3572 72.815C96.3872 72.605 96.4622 72.38 96.5822 72.14C96.9722 72.5 97.4222 72.68 97.9322 72.68C98.6522 72.62 99.0722 72.38 99.1922 71.96C99.3122 71.54 99.3722 71.015 99.3722 70.385V68.72C99.8222 68.6 100.362 68.54 100.992 68.54C101.772 68.54 102.417 68.66 102.927 68.9C103.467 69.14 103.902 69.455 104.232 69.845C104.562 70.235 104.787 70.685 104.907 71.195C105.057 71.675 105.132 72.155 105.132 72.635ZM109.154 44.33H109.649C111.209 44.33 112.514 44.75 113.564 45.59C114.644 46.43 115.184 47.765 115.184 49.595V77H114.914C114.224 77 113.534 76.91 112.844 76.73C112.184 76.55 111.569 76.265 110.999 75.875C110.459 75.455 110.009 74.93 109.649 74.3C109.319 73.64 109.154 72.83 109.154 71.87V44.33Z" fill="#DAEBF5"/>
</svg>
