<svg width="112" height="112" viewBox="0 0 112 112" fill="none" xmlns="http://www.w3.org/2000/svg">
<path fill-rule="evenodd" clip-rule="evenodd" d="M0.816992 56.7821C6.33469 85.1687 35.6853 103.346 49.1903 110.328C53.5026 112.557 58.4974 112.557 62.8098 110.328C76.3149 103.346 105.666 85.1687 111.183 56.7821C115.782 33.1229 101.443 0 56 0C10.5568 0 -3.78182 33.1229 0.816992 56.7821ZM9.97416 54.9521C12.1977 66.3912 19.3639 76.3453 28.2904 84.5827C37.1621 92.7694 47.0793 98.6138 53.4297 101.897C55.0789 102.749 56.9212 102.749 58.5704 101.897C64.9208 98.6138 74.8381 92.7694 83.7098 84.5827C92.6363 76.3454 99.8025 66.3913 102.026 54.9522C103.845 45.5911 101.887 34.2485 95.0124 25.3582C88.3586 16.7535 76.3171 9.46368 56 9.46368C35.683 9.46368 23.6414 16.7535 16.9875 25.3582C10.1128 34.2486 8.15461 45.5911 9.97416 54.9521Z" fill="#92CAE1"/>
<path fill-rule="evenodd" clip-rule="evenodd" d="M37.3335 47.3182C37.3335 57.7715 45.6908 66.2455 56.0002 66.2455C66.3095 66.2455 74.6668 57.7715 74.6668 47.3182C74.6668 36.8649 66.3095 28.3908 56.0002 28.3908C45.6908 28.3908 37.3335 36.8649 37.3335 47.3182ZM46.6668 47.3182C46.6668 52.5448 50.8455 56.7818 56.0002 56.7818C61.1548 56.7818 65.3335 52.5448 65.3335 47.3182C65.3335 42.0915 61.1548 37.8545 56.0002 37.8545C50.8455 37.8545 46.6668 42.0915 46.6668 47.3182Z" fill="#4840CB"/>
</svg>
