<svg width="150" height="150" viewBox="0 0 150 150" fill="none" xmlns="http://www.w3.org/2000/svg">
<path fill-rule="evenodd" clip-rule="evenodd" d="M149.642 23.4695C149.104 18.643 147.692 11.9977 142.989 7.21834C138.227 2.37903 131.54 0.919407 126.706 0.367292C121.323 -0.247556 115.161 -0.0434758 108.838 0.631158C96.1205 1.9882 80.9585 5.45173 66.3503 10.0551C51.7498 14.656 37.109 20.5823 25.5493 27.1224C19.7883 30.3818 14.4232 33.9996 10.1574 37.942C6.10649 41.6857 1.83362 46.827 0.412765 53.3243L16.2293 48.8655L16.2215 48.8743L0.41105 53.3321C-0.628699 58.0902 0.481964 62.4421 1.7662 65.566C3.09524 68.7988 5.04471 71.7877 7.10766 74.3976C11.2423 79.6283 16.8783 84.6481 22.7592 88.6957C28.5843 92.7049 35.4397 96.3049 42.2254 98.007C44.8477 98.6648 48.123 99.1836 51.5817 99.0167C51.456 102.183 51.9058 105.165 52.4771 107.573C54.0225 114.087 57.3475 120.676 61.0187 126.3C64.7382 131.999 69.3077 137.463 73.9947 141.629C76.3328 143.706 78.9545 145.689 81.7477 147.191C84.3603 148.596 88.1864 150.162 92.6155 149.987L92.6992 149.983C93.1379 149.967 94.3822 149.921 95.6589 149.712L95.6958 149.705C102.478 148.569 107.857 144.379 111.756 140.34C115.836 136.112 119.537 130.75 122.843 125.002C129.477 113.466 135.421 98.7735 140.011 84.1166C144.606 69.4406 148.035 54.1917 149.377 41.3982C150.044 35.0361 150.242 28.8567 149.642 23.4695ZM134.343 15.5689L16.2293 48.8655C36.3582 26.636 121.497 2.82527 134.343 15.5689ZM134.343 15.5689L16.2215 48.8743C14.0771 51.2444 12.6719 53.5965 12.1725 55.8844C9.54069 67.9019 46.2817 95.4713 57.1385 84.5508L74.8043 66.7438C77.42 64.1128 81.0422 64.4445 83.5011 66.8746C85.9601 69.3047 86.3248 72.9129 83.7091 75.5439L65.9954 93.3991C55.6673 103.788 81.2413 138.426 92.1379 137.995C92.6373 137.975 93.1991 137.953 93.7005 137.87C118.285 133.75 148.405 29.858 134.397 15.6231C134.379 15.605 134.361 15.5869 134.343 15.5689Z" fill="#92CAE1"/>
<rect width="12.678" height="39.9849" rx="6.33901" transform="matrix(0.733802 0.679363 -0.699552 0.714582 78.9742 62.2681)" fill="#4840CB"/>
</svg>
