<svg width="196" height="114" viewBox="0 0 196 114" fill="none" xmlns="http://www.w3.org/2000/svg">
<path fill-rule="evenodd" clip-rule="evenodd" d="M3.60675 47.9907C-1.20225 53.2085 -1.20225 60.7916 3.60675 66.0094C18.4133 82.0745 53.4429 114 98 114C142.557 114 177.587 82.0745 192.393 66.0094C197.202 60.7916 197.202 53.2085 192.393 47.9907C177.587 31.9255 142.557 0 98 0C53.4429 0 18.4133 31.9255 3.60675 47.9907ZM98 16.2857C62.7477 16.2857 33.0406 41.1831 18.0142 57C33.0406 72.817 62.7477 97.7143 98 97.7143C133.252 97.7143 162.959 72.817 177.986 57C162.959 41.1831 133.252 16.2857 98 16.2857Z" fill="#92CAE1"/>
<path fill-rule="evenodd" clip-rule="evenodd" d="M73.5 57C73.5 70.4915 84.469 81.4286 98 81.4286C111.531 81.4286 122.5 70.4915 122.5 57C122.5 43.5085 111.531 32.5714 98 32.5714C84.469 32.5714 73.5 43.5085 73.5 57ZM89.8333 57C89.8333 61.4972 93.4897 65.1428 98 65.1428C102.51 65.1428 106.167 61.4972 106.167 57C106.167 52.5028 102.51 48.8571 98 48.8571C93.4897 48.8571 89.8333 52.5028 89.8333 57Z" fill="#4840CB"/>
</svg>
